<svg xmlns="http://www.w3.org/2000/svg" version="1.1" xmlns:xlink="http://www.w3.org/1999/xlink" xmlns:svgjs="http://svgjs.dev/svgjs" width="128" height="128" viewBox="0 0 128 128"><g transform="matrix(0.8046875,0,0,0.8046875,12.760752631578946,16.266767333984376)"><svg viewBox="0 0 95 88" data-background-color="#2979ff" preserveAspectRatio="xMidYMid meet" height="118" width="128" xmlns="http://www.w3.org/2000/svg" xmlns:xlink="http://www.w3.org/1999/xlink"><g id="tight-bounds" transform="matrix(1,0,0,1,-0.24049999999999727,0.2378750000000025)"><svg viewBox="0 0 95.481 87.52425" height="87.52425" width="95.481"><g><svg viewBox="0 0 95.481 87.52425" height="87.52425" width="95.481"><g><svg viewBox="0 0 95.481 87.52425" height="87.52425" width="95.481"><g id="textblocktransform"><svg viewBox="0 0 95.481 87.52425" height="87.52425" width="95.481" id="textblock"><g><svg viewBox="0 0 95.481 87.52425" height="87.52425" width="95.481"><g><svg viewBox="0 0 95.481 87.52425" height="87.52425" width="95.481"><g><svg xmlns="http://www.w3.org/2000/svg" xmlns:xlink="http://www.w3.org/1999/xlink" version="1.1" x="0" y="0" viewBox="0 1 24 22" style="enable-background:new 0 0 24 24;" xml:space="preserve" height="87.52425" width="95.481" class="icon-icon-0" data-fill-palette-color="accent" id="icon-0"><g fill="#ffffff" data-fill-palette-color="accent"><path d="M21.5 1h-19C1.122 1 0 2.122 0 3.5v17C0 21.878 1.122 23 2.5 23h19c1.378 0 2.5-1.122 2.5-2.5v-17C24 2.122 22.878 1 21.5 1zM2.5 2h19C22.327 2 23 2.673 23 3.5V5H1V3.5C1 2.673 1.673 2 2.5 2zM21.5 22h-19C1.673 22 1 21.327 1 20.5V6h22v14.5C23 21.327 22.327 22 21.5 22z" fill="#ffffff" data-fill-palette-color="accent"></path><circle cx="2.5" cy="3.5" r="0.50" fill="#ffffff" data-fill-palette-color="accent"></circle><circle cx="4.5" cy="3.5" r="0.50" fill="#ffffff" data-fill-palette-color="accent"></circle><circle cx="6.5" cy="3.5" r="0.50" fill="#ffffff" data-fill-palette-color="accent"></circle><path d="M7.853 10.148c-0.195-0.195-0.512-0.195-0.707 0s-0.195 0.512 0 0.707l2.646 2.646-2.646 2.646c-0.195 0.195-0.195 0.512 0 0.707C7.244 16.951 7.372 17 7.5 17s0.256-0.049 0.353-0.145l3-3c0.195-0.195 0.195-0.512 0-0.707L7.853 10.148z" fill="#ffffff" data-fill-palette-color="accent"></path><path d="M17.5 15h-5c-0.276 0-0.5 0.224-0.5 0.5s0.224 0.5 0.5 0.5h5c0.276 0 0.5-0.224 0.5-0.5S17.776 15 17.5 15z" fill="#ffffff" data-fill-palette-color="accent"></path></g></svg></g></svg></g></svg></g></svg></g></svg></g></svg></g><defs></defs></svg><rect width="95.481" height="87.52425" fill="none" stroke="none" visibility="hidden"></rect></g></svg></g></svg>